# xmcd
#
# Track frame offsets:
#	150
#	13817
#	37308
#	67685
#	81622
#	98974
#	116354
#	143508
#
# Disc length: 2198 seconds
#
# Revision: 1
# Processed by: cddbd v1.5.2PL0 Copyright (c) Steve Scherf et al.
# Submitted via: audiograbber 1.83.01
#
DISCID=67089408
DTITLE=Fadoul - Al Zman Saib
DYEAR=2015
DGENRE=Funk
TTITLE0=Sid Redad
TTITLE1=Layla Al Jadba
TTITLE2=Maktoub Lah
TTITLE3=Tayeh
TTITLE4=La Tiq Tiq Latiq
TTITLE5=Al Zman Saib
TTITLE6=Kalam Al Nass
TTITLE7=Taarida
EXTD=
EXTT0=
EXTT1=
EXTT2=
EXTT3=
EXTT4=
EXTT5=
EXTT6=
EXTT7=
PLAYORDER=
